<svg width="281" height="281" viewBox="0 0 281 281" fill="none" xmlns="http://www.w3.org/2000/svg">
<g clip-path="url(#clip0_673_6961)">
<rect width="281" height="281" rx="140.5" fill="#FF8B13"/>
<path d="M0 200.792V273.147H74.3852V163.403H59.1622V134.323L47.7449 124.976V72.3538L40.4794 68.1995V9H31.8299V68.1995L22.1426 72.3538V107.32L12.4552 114.936V200.792H0Z" fill="#FFAB54"/>
<path fill-rule="evenodd" clip-rule="evenodd" d="M192.889 273.216C190.221 261.431 187.864 242.058 189.22 218.185C191.815 172.493 221.571 124.799 248.587 103.621V72.4366H255.757V273.216H192.889ZM201.172 254.235C199.167 245.377 197.395 230.814 198.414 212.869C200.365 178.522 228.123 130.895 248.43 114.975V253.574L201.172 254.235Z" fill="#FFAB54"/>
<rect x="267.764" y="149.146" width="69.7057" height="7.33744" transform="rotate(180 267.764 149.146)" fill="#FFAB54"/>
<rect x="251.302" y="168.161" width="46.0676" height="5.53602" transform="rotate(180 251.302 168.161)" fill="#FFAB54"/>
<rect x="251.302" y="183.978" width="47.6493" height="5.53602" transform="rotate(180 251.302 183.978)" fill="#FFAB54"/>
<rect x="251.302" y="199.795" width="53.1854" height="5.53603" transform="rotate(180 251.302 199.795)" fill="#FFAB54"/>
<rect x="251.302" y="215.612" width="55.3602" height="5.53603" transform="rotate(180 251.302 215.612)" fill="#FFAB54"/>
<rect x="251.302" y="231.43" width="56.5465" height="5.53602" transform="rotate(180 251.302 231.43)" fill="#FFAB54"/>
<rect x="45.079" y="266.03" width="23.3304" height="18.1898" fill="#FFAB54"/>
<rect x="240.817" y="266.03" width="23.3304" height="18.1898" fill="#FFAB54"/>
<rect x="59.1168" y="237.163" width="28.8664" height="50.4174" fill="#FFAB54"/>
<rect x="68.4635" y="254.123" width="195.684" height="41.544" fill="#FFAB54"/>
<rect x="246.551" y="247.247" width="56.5465" height="5.53602" transform="rotate(180 246.551 247.247)" fill="#FFAB54"/>
<g clip-path="url(#clip1_673_6961)">
<path d="M67.974 106.538C67.974 82.4733 67.974 70.4412 72.7314 61.2827C76.7405 53.5649 83.0333 47.2721 90.751 43.2631C99.9095 38.5056 111.942 38.5056 136.006 38.5056H145.197C169.261 38.5056 181.293 38.5056 190.452 43.2631C198.169 47.2721 204.462 53.5649 208.471 61.2827C213.229 70.4412 213.229 82.4733 213.229 106.538V155.519C213.229 169.557 213.229 176.576 210.454 181.918C208.115 186.42 204.444 190.091 199.942 192.43C194.6 195.205 187.581 195.205 173.543 195.205H107.659C93.6218 195.205 86.603 195.205 81.2606 192.43C76.7586 190.091 73.0878 186.42 70.7492 181.918C67.974 176.576 67.974 169.557 67.974 155.519V106.538Z" fill="white"/>
<path d="M88.5964 55.6795C86.6717 48.4493 85.7094 44.8342 86.558 41.9812C87.3017 39.4813 88.9438 37.3448 91.1683 35.9831C93.707 34.4291 97.448 34.4291 104.93 34.4291H175.98C183.444 34.4291 187.176 34.4291 189.712 35.9788C191.935 37.3367 193.577 39.4677 194.324 41.9625C195.177 44.8097 194.226 48.4186 192.325 55.6364L171.206 135.823C167.541 149.739 154.958 159.436 140.568 159.436C126.209 159.436 113.646 149.78 109.952 135.904L88.5964 55.6795Z" fill="#FFB365"/>
<circle cx="110.582" cy="156.971" r="6.16232" fill="#FF8B13"/>
<circle cx="170.092" cy="156.971" r="6.16232" fill="#FF8B13"/>
<path d="M94.9122 159.436L67.974 150.809V75.2765C72.5681 84.4299 80.9588 98.1225 86.5592 116.975C90.1092 128.925 94.4945 154.605 94.9122 159.436Z" fill="#FFE0C0"/>
<path d="M186.29 159.436L213.229 150.809V75.2765C208.634 84.4299 200.244 98.1225 194.643 116.975C191.093 128.925 186.708 154.605 186.29 159.436Z" fill="#FFE0C0"/>
</g>
<path d="M84.0272 208.646H105.532V238.413H68L84.0272 208.646Z" fill="white"/>
<path d="M196.794 208.646H175.29V238.413H212.822L196.794 208.646Z" fill="white"/>
</g>
<defs>
<clipPath id="clip0_673_6961">
<rect width="281" height="281" rx="140.5" fill="white"/>
</clipPath>
<clipPath id="clip1_673_6961">
<path d="M67.974 110.032C67.974 85.9677 67.974 73.9355 72.7314 64.777C76.7405 57.0593 83.0333 50.7665 90.751 46.7574C99.9095 42 111.942 42 136.006 42H145.297C169.362 42 181.394 42 190.552 46.7574C198.27 50.7665 204.563 57.0593 208.572 64.777C213.329 73.9355 213.329 85.9677 213.329 110.032V198.751H67.974V110.032Z" fill="white"/>
</clipPath>
</defs>
</svg>
